STARTFONT 2.1
FONT My-Custom-Font-16
SIZE 16 75 75
FONTBOUNDINGBOX 15 16 0 -4
STARTPROPERTIES 2
FONT_ASCENT 12
FONT_DESCENT 4
ENDPROPERTIES
CHARS 80
STARTCHAR U+001F
ENCODING 31
SWIDTH 15 0
DWIDTH 15 0
BBX 15 16 0 -4
BITMAP
03C0
0FF0
1FF8
3E7C
3C7C
7E7E
7E7E
7E7E
3E7C
3E7C
1FF8
0FF0
03C0
0000
0000
0000
ENDCHAR
STARTCHAR U+0020
ENCODING 32
SWIDTH 4 0
DWIDTH 4 0
BBX 3 16 0 -4
BITMAP
00
00
00
00
00
00
00
00
00
00
00
00
00
00
00
00
ENDCHAR
STARTCHAR U+0021
ENCODING 33
SWIDTH 4 0
DWIDTH 4 0
BBX 6 16 1 -4
BITMAP
0000
0000
C000
C000
C000
C000
C000
C000
0000
0000
C000
C000
0000
0000
0000
0000
ENDCHAR
STARTCHAR U+0023
ENCODING 35
SWIDTH 15 0
DWIDTH 15 0
BBX 15 16 0 -4
BITMAP
03C0
0FF0
1FF8
3C3C
399C
7F9E
7E3E
7F9E
399C
3C3C
1FF8
0FF0
03C0
0000
0000
0000
ENDCHAR
STARTCHAR U+0024
ENCODING 36
SWIDTH 15 0
DWIDTH 15 0
BBX 15 16 0 -4
BITMAP
03C0
0FF0
1FF8
3F3C
3E3C
7D3E
7B3E
781E
3F3C
3F3C
1FF8
0FF0
03C0
0000
0000
0000
ENDCHAR
STARTCHAR U+0025
ENCODING 37
SWIDTH 15 0
DWIDTH 15 0
BBX 15 16 0 -4
BITMAP
03C0
0FF0
1FF8
381C
39FC
79FE
781E
7F9E
399C
3C3C
1FF8
0FF0
03C0
0000
0000
0000
ENDCHAR
STARTCHAR U+002A
ENCODING 42
SWIDTH 14 0
DWIDTH 14 0
BBX 14 16 0 -4
BITMAP
0100
0380
07C0
0C60
19B0
39F8
787C
3938
1930
0C60
07C0
0380
0100
0000
0000
0000
ENDCHAR
STARTCHAR U+002C
ENCODING 44
SWIDTH 3 0
DWIDTH 3 0
BBX 3 16 0 -4
BITMAP
0000
0000
0000
0000
0000
0000
0000
0000
0000
0000
6000
6000
2000
4000
0000
0000
ENDCHAR
STARTCHAR U+002D
ENCODING 45
SWIDTH 6 0
DWIDTH 6 0
BBX 6 16 0 -4
BITMAP
0000
0000
0000
0000
0000
0000
0000
7C00
0000
0000
0000
0000
0000
0000
0000
0000
ENDCHAR
STARTCHAR U+002E
ENCODING 46
SWIDTH 4 0
DWIDTH 4 0
BBX 4 16 0 -4
BITMAP
0000
0000
0000
0000
0000
0000
0000
0000
0000
0000
6000
6000
0000
0000
0000
0000
ENDCHAR
STARTCHAR U+002F
ENCODING 47
SWIDTH 8 0
DWIDTH 8 0
BBX 8 16 0 -4
BITMAP
0000
0000
0000
3F00
1F00
0F00
1F00
3B00
7100
6000
0000
0000
0000
0000
0000
0000
ENDCHAR
STARTCHAR 0
ENCODING 48
SWIDTH 7 0
DWIDTH 7 0
BBX 7 16 0 -4
BITMAP
0000
3C00
6600
6600
6600
6600
6600
6600
6600
6600
6600
3C00
0000
0000
0000
0000
ENDCHAR
STARTCHAR 1
ENCODING 49
SWIDTH 7 0
DWIDTH 7 0
BBX 7 16 0 -4
BITMAP
0000
0E00
1E00
3600
6600
0600
0600
0600
0600
0600
0600
0600
0000
0000
0000
0000
ENDCHAR
STARTCHAR 2
ENCODING 50
SWIDTH 7 0
DWIDTH 7 0
BBX 7 16 0 -4
BITMAP
0000
3C00
7E00
6600
0600
0600
0C00
1C00
3800
7000
7E00
7E00
0000
0000
0000
0000
ENDCHAR
STARTCHAR 3
ENCODING 51
SWIDTH 7 0
DWIDTH 7 0
BBX 7 16 0 -4
BITMAP
0000
3C00
7E00
6600
0600
1C00
1C00
0600
0600
6600
7E00
3C00
0000
0000
0000
0000
ENDCHAR
STARTCHAR 4
ENCODING 52
SWIDTH 7 0
DWIDTH 7 0
BBX 7 16 0 -4
BITMAP
0000
0200
0600
0E00
1E00
3600
6600
7E00
7E00
0600
0600
0600
0000
0000
0000
0000
ENDCHAR
STARTCHAR 5
ENCODING 53
SWIDTH 7 0
DWIDTH 7 0
BBX 7 16 0 -4
BITMAP
0000
7E00
7E00
6000
6000
7C00
7E00
0600
0600
0600
7E00
7C00
0000
0000
0000
0000
ENDCHAR
STARTCHAR 6
ENCODING 54
SWIDTH 7 0
DWIDTH 7 0
BBX 7 16 0 -4
BITMAP
0000
3C00
7E00
6600
6000
7C00
7E00
6600
6600
6600
7E00
3C00
0000
0000
0000
0000
ENDCHAR
STARTCHAR 7
ENCODING 55
SWIDTH 7 0
DWIDTH 7 0
BBX 7 16 0 -4
BITMAP
0000
7E00
7E00
0600
0C00
0C00
1800
1800
3000
3000
6000
6000
0000
0000
0000
0000
ENDCHAR
STARTCHAR 8
ENCODING 56
SWIDTH 7 0
DWIDTH 7 0
BBX 7 16 0 -4
BITMAP
0000
3C00
7E00
6600
6600
3C00
3C00
6600
6600
6600
7E00
3C00
0000
0000
0000
0000
ENDCHAR
STARTCHAR 9
ENCODING 57
SWIDTH 7 0
DWIDTH 7 0
BBX 7 16 0 -4
BITMAP
0000
3C00
7E00
6600
6600
6600
7E00
3E00
0600
6600
7E00
3C00
0000
0000
0000
0000
ENDCHAR
STARTCHAR U+003A
ENCODING 58
SWIDTH 4 0
DWIDTH 4 0
BBX 4 16 0 -4
BITMAP
0000
0000
0000
0000
3000
3000
0000
0000
3000
3000
0000
0000
0000
0000
0000
0000
ENDCHAR
STARTCHAR U+003C
ENCODING 60
SWIDTH 9 0
DWIDTH 9 0
BBX 9 16 0 -4
BITMAP
0000
0000
0000
0800
1800
3F80
7F80
3F80
1800
0800
0000
0000
0000
0000
0000
0000
ENDCHAR
STARTCHAR U+003E
ENCODING 62
SWIDTH 9 0
DWIDTH 9 0
BBX 9 16 0 -4
BITMAP
0000
0000
0000
0400
0600
7F00
7F80
7F00
0600
0400
0000
0000
0000
0000
0000
0000
ENDCHAR
STARTCHAR U+0040
ENCODING 64
SWIDTH 15 0
DWIDTH 15 0
BBX 15 16 0 -4
BITMAP
03C0
0FF0
1FF8
3C3C
399C
7F9E
7F3E
7E7E
3CFC
381C
1FF8
0FF0
03C0
0000
0000
0000
ENDCHAR
STARTCHAR A
ENCODING 65
SWIDTH 10 0
DWIDTH 10 0
BBX 10 16 0 -4
BITMAP
0000
0E00
0E00
0E00
1B00
1B00
1B00
3180
3F80
3F80
60C0
60C0
0000
0000
0000
0000
ENDCHAR
STARTCHAR B
ENCODING 66
SWIDTH 7 0
DWIDTH 7 0
BBX 7 16 0 -4
BITMAP
0000
7C00
7E00
6600
6600
7C00
7C00
6600
6600
6600
7E00
7C00
0000
0000
0000
0000
ENDCHAR
STARTCHAR C
ENCODING 67
SWIDTH 9 0
DWIDTH 9 0
BBX 9 16 0 -4
BITMAP
0000
1E00
3F00
3380
6100
6000
6000
6000
6100
3380
3F00
1E00
0000
0000
0000
0000
ENDCHAR
STARTCHAR D
ENCODING 68
SWIDTH 8 0
DWIDTH 8 0
BBX 8 16 0 -4
BITMAP
0000
7C00
7E00
6700
6300
6300
6300
6300
6300
6700
7E00
7C00
0000
0000
0000
0000
ENDCHAR
STARTCHAR E
ENCODING 69
SWIDTH 8 0
DWIDTH 8 0
BBX 8 16 0 -4
BITMAP
0000
7F00
7F00
6000
6000
7F00
7F00
6000
6000
6000
7F00
7F00
0000
0000
0000
0000
ENDCHAR
STARTCHAR F
ENCODING 70
SWIDTH 7 0
DWIDTH 7 0
BBX 7 16 0 -4
BITMAP
0000
7E00
7E00
6000
6000
7C00
7C00
6000
6000
6000
6000
6000
0000
0000
0000
0000
ENDCHAR
STARTCHAR G
ENCODING 71
SWIDTH 9 0
DWIDTH 9 0
BBX 9 16 0 -4
BITMAP
0000
1E00
3F00
3380
6100
6000
6000
6780
6780
3300
3F00
1E00
0000
0000
0000
0000
ENDCHAR
STARTCHAR H
ENCODING 72
SWIDTH 8 0
DWIDTH 8 0
BBX 8 16 0 -4
BITMAP
0000
6300
6300
6300
6300
7F00
7F00
6300
6300
6300
6300
6300
0000
0000
0000
0000
ENDCHAR
STARTCHAR I
ENCODING 73
SWIDTH 7 0
DWIDTH 7 0
BBX 7 16 0 -4
BITMAP
0000
7E00
7E00
1800
1800
1800
1800
1800
1800
1800
7E00
7E00
0000
0000
0000
0000
ENDCHAR
STARTCHAR J
ENCODING 74
SWIDTH 7 0
DWIDTH 7 0
BBX 7 16 0 -4
BITMAP
0000
0600
0600
0600
0600
0600
0600
0600
C600
EE00
7C00
3800
0000
0000
0000
0000
ENDCHAR
STARTCHAR K
ENCODING 75
SWIDTH 9 0
DWIDTH 9 0
BBX 9 16 0 -4
BITMAP
0000
C700
CE00
DC00
D800
F000
F000
F000
D800
DC00
CE00
C700
0000
0000
0000
0000
ENDCHAR
STARTCHAR L
ENCODING 76
SWIDTH 9 0
DWIDTH 9 0
BBX 9 16 0 -4
BITMAP
0000
6000
6000
6000
6000
6000
6000
6000
6000
6000
7F80
7F80
0000
0000
0000
0000
ENDCHAR
STARTCHAR M
ENCODING 77
SWIDTH 10 0
DWIDTH 10 0
BBX 10 16 0 -4
BITMAP
0000
60C0
71C0
7BC0
7FC0
6EC0
64C0
60C0
60C0
60C0
60C0
60C0
0000
0000
0000
0000
ENDCHAR
STARTCHAR N
ENCODING 78
SWIDTH 8 0
DWIDTH 8 0
BBX 8 16 0 -4
BITMAP
0000
6300
7300
7B00
7F00
6F00
6700
6300
6300
6300
6300
6300
0000
0000
0000
0000
ENDCHAR
STARTCHAR O
ENCODING 79
SWIDTH 9 0
DWIDTH 9 0
BBX 9 16 0 -4
BITMAP
0000
1E00
3F00
3300
6180
6180
6180
6180
6180
3300
3F00
1E00
0000
0000
0000
0000
ENDCHAR
STARTCHAR P
ENCODING 80
SWIDTH 7 0
DWIDTH 7 0
BBX 7 16 0 -4
BITMAP
0000
7C00
7E00
6600
6600
7E00
7C00
6000
6000
6000
6000
6000
0000
0000
0000
0000
ENDCHAR
STARTCHAR Q
ENCODING 81
SWIDTH 9 0
DWIDTH 9 0
BBX 9 16 0 -4
BITMAP
0000
3E00
7F00
6300
6300
6300
6300
6300
6B00
6600
7F00
3D80
0080
0000
0000
0000
ENDCHAR
STARTCHAR R
ENCODING 82
SWIDTH 8 0
DWIDTH 8 0
BBX 8 16 0 -4
BITMAP
0000
7E00
7F00
6300
6300
7F00
7E00
6600
6300
6300
6300
6300
0000
0000
0000
0000
ENDCHAR
STARTCHAR S
ENCODING 83
SWIDTH 8 0
DWIDTH 8 0
BBX 8 16 0 -4
BITMAP
0000
3E00
7F00
6300
6300
7800
3E00
0700
6300
6300
7F00
3E00
0000
0000
0000
0000
ENDCHAR
STARTCHAR T
ENCODING 84
SWIDTH 9 0
DWIDTH 9 0
BBX 9 16 0 -4
BITMAP
0000
7F80
7F80
0C00
0C00
0C00
0C00
0C00
0C00
0C00
0C00
0C00
0000
0000
0000
0000
ENDCHAR
STARTCHAR U
ENCODING 85
SWIDTH 9 0
DWIDTH 9 0
BBX 9 16 0 -4
BITMAP
0000
3180
3180
3180
3180
3180
3180
3180
3180
3180
3F80
1F00
0000
0000
0000
0000
ENDCHAR
STARTCHAR V
ENCODING 86
SWIDTH 10 0
DWIDTH 10 0
BBX 10 16 0 -4
BITMAP
0000
60C0
60C0
3180
3180
3180
1B00
1B00
1B00
0E00
0E00
0E00
0000
0000
0000
0000
ENDCHAR
STARTCHAR W
ENCODING 87
SWIDTH 9 0
DWIDTH 9 0
BBX 9 16 0 -4
BITMAP
0000
6180
6180
6180
6180
6180
6180
6D80
7F80
7F80
7380
6180
0000
0000
0000
0000
ENDCHAR
STARTCHAR X
ENCODING 88
SWIDTH 9 0
DWIDTH 9 0
BBX 9 16 0 -4
BITMAP
0000
6180
6180
3300
3300
1E00
0C00
1E00
3300
3300
6180
6180
0000
0000
0000
0000
ENDCHAR
STARTCHAR Y
ENCODING 89
SWIDTH 9 0
DWIDTH 9 0
BBX 9 16 0 -4
BITMAP
0000
6180
6180
3300
3300
1E00
1E00
0C00
0C00
0C00
0C00
0C00
0000
0000
0000
0000
ENDCHAR
STARTCHAR Z
ENCODING 90
SWIDTH 8 0
DWIDTH 8 0
BBX 8 16 0 -4
BITMAP
0000
7F00
7F00
0600
0C00
0C00
1800
1800
3000
3000
7F00
7F00
0000
0000
0000
0000
ENDCHAR
STARTCHAR U+005E
ENCODING 94
SWIDTH 15 0
DWIDTH 15 0
BBX 15 16 0 -4
BITMAP
03C0
0FF0
1FF8
3C3C
39FC
79FE
783E
799E
399C
3C3C
1FF8
0FF0
03C0
0000
0000
0000
ENDCHAR
STARTCHAR U+005F
ENCODING 95
SWIDTH 15 0
DWIDTH 15 0
BBX 15 16 0 -4
BITMAP
03C0
0FF0
1FF8
3FFC
3FFC
7FFE
7FFE
7FFE
3FFC
3FFC
1FF8
0FF0
03C0
0000
0000
0000
ENDCHAR
STARTCHAR U+0060
ENCODING 96
SWIDTH 15 0
DWIDTH 15 0
BBX 15 16 0 -4
BITMAP
0000
0000
0780
1FE0
3FF0
3FF0
7FF8
7FF8
7FF8
3FF0
3FF0
1FE0
0780
0000
0000
0000
ENDCHAR
STARTCHAR a
ENCODING 97
SWIDTH 7 0
DWIDTH 7 0
BBX 7 16 0 -4
BITMAP
0000
0000
0000
0000
3C00
7E00
6600
1E00
7E00
6600
7E00
3600
0000
0000
0000
0000
ENDCHAR
STARTCHAR b
ENCODING 98
SWIDTH 7 0
DWIDTH 7 0
BBX 7 16 0 -4
BITMAP
0000
6000
6000
6000
7C00
7E00
6600
6600
6600
6600
7E00
7C00
0000
0000
0000
0000
ENDCHAR
STARTCHAR c
ENCODING 99
SWIDTH 7 0
DWIDTH 7 0
BBX 7 16 0 -4
BITMAP
0000
0000
0000
0000
1C00
3E00
6600
6000
6000
6600
3E00
1C00
0000
0000
0000
0000
ENDCHAR
STARTCHAR d
ENCODING 100
SWIDTH 7 0
DWIDTH 7 0
BBX 7 16 0 -4
BITMAP
0000
0600
0600
0600
3E00
7E00
6600
6600
6600
6600
7E00
3E00
0000
0000
0000
0000
ENDCHAR
STARTCHAR e
ENCODING 101
SWIDTH 7 0
DWIDTH 7 0
BBX 7 16 0 -4
BITMAP
0000
0000
0000
0000
3C00
7E00
6600
7E00
6000
6600
7E00
3C00
0000
0000
0000
0000
ENDCHAR
STARTCHAR f
ENCODING 102
SWIDTH 5 0
DWIDTH 5 0
BBX 5 16 0 -4
BITMAP
0000
1800
3800
3000
7800
7800
3000
3000
3000
3000
3000
3000
0000
0000
0000
0000
ENDCHAR
STARTCHAR g
ENCODING 103
SWIDTH 7 0
DWIDTH 7 0
BBX 7 16 0 -4
BITMAP
0000
0000
0000
0000
3600
7E00
6600
6600
6600
6600
7E00
3600
0600
6600
3C00
0000
ENDCHAR
STARTCHAR h
ENCODING 104
SWIDTH 7 0
DWIDTH 7 0
BBX 7 16 0 -4
BITMAP
0000
6000
6000
6000
6C00
7E00
6600
6600
6600
6600
6600
6600
0000
0000
0000
0000
ENDCHAR
STARTCHAR i
ENCODING 105
SWIDTH 5 0
DWIDTH 5 0
BBX 5 16 0 -4
BITMAP
0000
3000
3000
0000
3000
3000
3000
3000
3000
3000
7800
7800
0000
0000
0000
0000
ENDCHAR
STARTCHAR j
ENCODING 106
SWIDTH 7 0
DWIDTH 7 0
BBX 7 16 0 -4
BITMAP
0000
0000
0000
0000
0600
0600
0000
0600
0600
0600
0600
0600
0600
6600
7E00
3C00
ENDCHAR
STARTCHAR k
ENCODING 107
SWIDTH 7 0
DWIDTH 7 0
BBX 7 16 0 -4
BITMAP
0000
6000
6000
6000
6600
6C00
7800
7C00
6C00
6C00
6600
6600
0000
0000
0000
0000
ENDCHAR
STARTCHAR l
ENCODING 108
SWIDTH 3 0
DWIDTH 3 0
BBX 3 16 0 -4
BITMAP
0000
6000
6000
6000
6000
6000
6000
6000
6000
6000
6000
6000
0000
0000
0000
0000
ENDCHAR
STARTCHAR m
ENCODING 109
SWIDTH 11 0
DWIDTH 11 0
BBX 11 16 0 -4
BITMAP
0000
0000
0000
0000
7DC0
7FE0
6660
6660
6660
6660
6660
6660
0000
0000
0000
0000
ENDCHAR
STARTCHAR n
ENCODING 110
SWIDTH 7 0
DWIDTH 7 0
BBX 7 16 0 -4
BITMAP
0000
0000
0000
0000
7C00
7E00
6600
6600
6600
6600
6600
6600
0000
0000
0000
0000
ENDCHAR
STARTCHAR o
ENCODING 111
SWIDTH 7 0
DWIDTH 7 0
BBX 7 16 0 -4
BITMAP
0000
0000
0000
0000
3C00
7E00
6600
6600
6600
6600
7E00
3C00
0000
0000
0000
0000
ENDCHAR
STARTCHAR p
ENCODING 112
SWIDTH 6 0
DWIDTH 6 0
BBX 6 16 0 -4
BITMAP
0000
0000
0000
0000
7800
7C00
6C00
6C00
6C00
6C00
7C00
7800
6000
6000
6000
0000
ENDCHAR
STARTCHAR q
ENCODING 113
SWIDTH 6 0
DWIDTH 6 0
BBX 6 16 0 -4
BITMAP
0000
0000
0000
0000
3C00
7C00
6C00
6C00
6C00
6C00
7C00
3C00
0C00
0C00
0C00
0000
ENDCHAR
STARTCHAR r
ENCODING 114
SWIDTH 6 0
DWIDTH 6 0
BBX 6 16 0 -4
BITMAP
0000
0000
0000
0000
3800
7C00
6000
6000
6000
6000
6000
6000
0000
0000
0000
0000
ENDCHAR
STARTCHAR s
ENCODING 115
SWIDTH 7 0
DWIDTH 7 0
BBX 7 16 0 -4
BITMAP
0000
0000
0000
0000
3C00
7E00
6000
7C00
3E00
0600
7E00
7C00
0000
0000
0000
0000
ENDCHAR
STARTCHAR t
ENCODING 116
SWIDTH 5 0
DWIDTH 5 0
BBX 5 16 0 -4
BITMAP
0000
3000
3000
7800
7800
3000
3000
3000
3000
3000
3800
3800
0000
0000
0000
0000
ENDCHAR
STARTCHAR u
ENCODING 117
SWIDTH 7 0
DWIDTH 7 0
BBX 7 16 0 -4
BITMAP
0000
0000
0000
0000
6600
6600
6600
6600
6600
6600
7E00
3E00
0000
0000
0000
0000
ENDCHAR
STARTCHAR v
ENCODING 118
SWIDTH 9 0
DWIDTH 9 0
BBX 9 16 0 -4
BITMAP
0000
0000
0000
0000
6180
6180
6180
3300
3F00
1E00
0C00
0C00
0000
0000
0000
0000
ENDCHAR
STARTCHAR w
ENCODING 119
SWIDTH 12 0
DWIDTH 12 0
BBX 12 16 0 -4
BITMAP
0000
0000
0000
0000
6030
6030
6730
6730
2DA0
3DE0
38E0
38E0
0000
0000
0000
0000
ENDCHAR
STARTCHAR x
ENCODING 120
SWIDTH 8 0
DWIDTH 8 0
BBX 8 16 0 -4
BITMAP
0000
0000
0000
0000
6300
6300
3600
1C00
1C00
3600
6300
6300
0000
0000
0000
0000
ENDCHAR
STARTCHAR y
ENCODING 121
SWIDTH 9 0
DWIDTH 9 0
BBX 9 16 0 -4
BITMAP
0000
0000
0000
0000
6180
6180
3300
3300
1E00
1E00
0C00
0C00
3C00
3800
0000
0000
ENDCHAR
STARTCHAR z
ENCODING 122
SWIDTH 7 0
DWIDTH 7 0
BBX 7 16 0 -4
BITMAP
0000
0000
0000
0000
7E00
7E00
0E00
1C00
3800
7000
7E00
7E00
0000
0000
0000
0000
ENDCHAR
ENDFONT
